<svg width="18" height="18" viewBox="0 0 18 18" fill="none" xmlns="http://www.w3.org/2000/svg">
<g clip-path="url(#clip0_1149_26)">
<path d="M11.7625 0H6.23707C1.19482 0 -0.000488281 1.19531 -0.000488281 6.23756V11.763C-0.000488281 16.8053 1.19482 18.0006 6.23707 18.0006H11.7625C16.8048 18.0006 18.0001 16.8053 18.0001 11.763V6.23756C18.0001 1.19531 16.7929 0 11.7625 0ZM14.5311 12.8407H13.2244C12.7294 12.8407 12.577 12.4481 11.6866 11.5459C10.9131 10.7961 10.5706 10.6965 10.3799 10.6965C10.1104 10.6965 10.0339 10.7724 10.0339 11.142V12.3227C10.0339 12.6394 9.93439 12.8295 9.09626 12.8295C7.71026 12.8295 6.17239 11.9914 5.09407 10.4299C3.46789 8.14162 3.02295 6.42769 3.02295 6.07331C3.02295 5.88262 3.09889 5.70431 3.46507 5.70431H4.77457C5.10589 5.70431 5.23189 5.85675 5.3607 6.21112C6.00814 8.08031 7.08645 9.71775 7.53139 9.71775C7.69564 9.71775 7.77157 9.64181 7.77157 9.22275V7.29225C7.72151 6.40181 7.25295 6.32531 7.25295 6.00919C7.25295 5.85675 7.37895 5.70431 7.58089 5.70431H9.6402C9.91864 5.70431 10.021 5.85675 10.021 6.18469V8.78906C10.021 9.07031 10.147 9.16988 10.2229 9.16988C10.3872 9.16988 10.5278 9.07031 10.8321 8.76544C11.7726 7.71075 12.4465 6.08456 12.4465 6.08456C12.5343 5.89388 12.6867 5.71556 13.018 5.71556H14.3275C14.7201 5.71556 14.8079 5.9175 14.7201 6.19875C14.5559 6.96038 12.9533 9.22219 12.9533 9.22219C12.8155 9.45056 12.7626 9.55012 12.9533 9.80494C13.0939 9.99562 13.5513 10.3911 13.8556 10.7454C14.4153 11.3811 14.8456 11.9143 14.9603 12.2833C15.0891 12.6495 14.899 12.8402 14.5294 12.8402L14.5311 12.8407Z" fill="white"/>
</g>
<defs>
<clipPath id="clip0_1149_26">
<rect width="18" height="18" fill="white"/>
</clipPath>
</defs>
</svg>
